<svg width="50" height="57" viewBox="0 0 50 57" fill="none" xmlns="http://www.w3.org/2000/svg">
<path d="M48.3775 26.8011C46.1467 37.7079 36.4949 45.9114 24.9302 45.9114C13.3665 45.9114 3.71879 37.7079 1.48409 26.8011C1.16922 28.3601 1 29.9743 1 31.6248C1 44.8433 11.714 55.5561 24.9302 55.5561C38.1476 55.5561 48.8614 44.8433 48.8614 31.6248C48.8614 29.9743 48.6962 28.3601 48.3775 26.8011Z" fill="#CE52A1" stroke="#3A162C"/>
<path d="M13.9331 7.26192C12.8551 7.97002 11.84 8.79939 10.8918 9.74561C3.32546 17.3137 3.32546 29.5839 10.8918 37.1511C14.6769 40.9351 19.6344 42.8267 24.5959 42.8267C29.5564 42.8267 34.516 40.9351 38.2992 37.1511C39.2455 36.2058 40.0716 35.1847 40.7799 34.1095C37.5575 36.2383 33.8373 37.3025 30.1171 37.3025C25.1586 37.3025 20.197 35.4119 16.414 31.6279C9.79407 25.007 8.96772 14.7849 13.9331 7.26192Z" fill="#CE52A1" stroke="#3A162C"/>
<path d="M30.0896 1C21.2966 1.00101 14.0923 8.04979 13.9429 16.877C13.7896 25.7997 20.8933 33.1555 29.818 33.3049C29.9143 33.307 30.0088 33.309 30.1053 33.309C31.1204 33.309 32.1158 33.2145 33.0759 33.0344C19.0835 16.3891 33.6229 1.38759 33.6229 1.38759C32.5761 1.15351 31.4883 1.02055 30.3728 1.00201C30.2784 1.00101 30.1839 1 30.0896 1Z" fill="#CE52A1" stroke="#3A162C"/>
</svg>
