<svg width="217" height="56" viewBox="0 0 217 56" fill="none" xmlns="http://www.w3.org/2000/svg">
<path d="M48.3775 26.8011C46.1467 37.7079 36.4949 45.9114 24.9302 45.9114C13.3665 45.9114 3.71879 37.7079 1.48409 26.8011C1.16922 28.3601 1 29.9743 1 31.6248C1 44.8433 11.714 55.5561 24.9302 55.5561C38.1476 55.5561 48.8614 44.8433 48.8614 31.6248C48.8614 29.9743 48.6962 28.3601 48.3775 26.8011Z" fill="#CE52A1" stroke="#3A162C" stroke-width="0.25"/>
<path d="M13.9331 7.26192C12.8551 7.97002 11.84 8.79939 10.8918 9.74561C3.32546 17.3137 3.32546 29.5839 10.8918 37.1511C14.6769 40.9351 19.6344 42.8267 24.5959 42.8267C29.5564 42.8267 34.516 40.9351 38.2992 37.1511C39.2455 36.2058 40.0716 35.1847 40.7799 34.1095C37.5575 36.2383 33.8373 37.3025 30.1171 37.3025C25.1586 37.3025 20.197 35.4119 16.414 31.6279C9.79407 25.007 8.96772 14.7849 13.9331 7.26192Z" fill="#CE52A1" stroke="#3A162C" stroke-width="0.25"/>
<path d="M30.0896 1C21.2966 1.00101 14.0923 8.04979 13.9429 16.877C13.7896 25.7997 20.8933 33.1555 29.818 33.3049C29.9143 33.307 30.0088 33.309 30.1053 33.309C31.1204 33.309 32.1158 33.2145 33.0759 33.0344C19.0835 16.3891 33.6229 1.38759 33.6229 1.38759C32.5761 1.15351 31.4883 1.02055 30.3728 1.00201C30.2784 1.00101 30.1839 1 30.0896 1Z" fill="#CE52A1" stroke="#3A162C" stroke-width="0.25"/>
<path d="M62.975 36.778V19.3235H73.4409V21.1985H65.0886V27.0962H72.6568V28.9712H65.0886V36.778H62.975ZM79.9409 36.778V19.3235H82.0545V34.903H90.1682V36.778H79.9409ZM98.1384 36.778H95.9225L102.332 19.3235H104.513L110.922 36.778H108.707L103.491 22.0848H103.354L98.1384 36.778ZM98.9566 29.9598H107.888V31.8348H98.9566V29.9598ZM118.332 36.778L113.56 19.3235H115.707L119.355 33.5394H119.525L123.241 19.3235H125.628L129.344 33.5394H129.514L133.162 19.3235H135.31L130.537 36.778H128.355L124.503 22.8689H124.366L120.514 36.778H118.332ZM150.369 23.6871C150.266 22.8235 149.852 22.153 149.124 21.6758C148.397 21.1985 147.505 20.9598 146.448 20.9598C145.675 20.9598 144.999 21.0848 144.42 21.3348C143.846 21.5848 143.397 21.9286 143.073 22.3661C142.755 22.8036 142.596 23.3008 142.596 23.8576C142.596 24.3235 142.707 24.7241 142.928 25.0593C143.155 25.3888 143.445 25.6644 143.798 25.886C144.15 26.1019 144.519 26.2809 144.905 26.4229C145.292 26.5593 145.647 26.6701 145.971 26.7553L147.744 27.2326C148.198 27.3519 148.704 27.5167 149.261 27.7269C149.823 27.9371 150.36 28.2241 150.871 28.5877C151.388 28.9456 151.815 29.4059 152.15 29.9684C152.485 30.5309 152.653 31.2212 152.653 32.0394C152.653 32.9826 152.405 33.8348 151.911 34.5962C151.423 35.3576 150.707 35.9627 149.763 36.4116C148.826 36.8604 147.687 37.0848 146.346 37.0848C145.096 37.0848 144.013 36.8831 143.099 36.4797C142.19 36.0763 141.474 35.5138 140.951 34.7922C140.434 34.0706 140.141 33.2326 140.073 32.278H142.255C142.312 32.9371 142.533 33.4826 142.92 33.9144C143.312 34.3405 143.806 34.6587 144.403 34.8689C145.005 35.0735 145.653 35.1758 146.346 35.1758C147.153 35.1758 147.877 35.0451 148.519 34.7837C149.161 34.5167 149.67 34.1473 150.045 33.6758C150.42 33.1985 150.607 32.6417 150.607 32.0053C150.607 31.4258 150.445 30.9542 150.121 30.5905C149.798 30.2269 149.371 29.9314 148.843 29.7042C148.315 29.4769 147.744 29.278 147.13 29.1076L144.982 28.4939C143.619 28.1019 142.539 27.5422 141.744 26.815C140.948 26.0877 140.55 25.136 140.55 23.9598C140.55 22.9826 140.815 22.1303 141.343 21.403C141.877 20.6701 142.593 20.1019 143.491 19.6985C144.394 19.2894 145.403 19.0848 146.516 19.0848C147.641 19.0848 148.641 19.2866 149.516 19.69C150.391 20.0877 151.084 20.6331 151.596 21.3263C152.113 22.0195 152.386 22.8064 152.414 23.6871H150.369ZM173.735 28.0508C173.735 29.8917 173.403 31.4826 172.738 32.8235C172.073 34.1644 171.161 35.1985 170.002 35.9258C168.843 36.653 167.519 37.0167 166.031 37.0167C164.542 37.0167 163.218 36.653 162.059 35.9258C160.9 35.1985 159.988 34.1644 159.323 32.8235C158.658 31.4826 158.326 29.8917 158.326 28.0508C158.326 26.2098 158.658 24.6189 159.323 23.278C159.988 21.9371 160.9 20.903 162.059 20.1758C163.218 19.4485 164.542 19.0848 166.031 19.0848C167.519 19.0848 168.843 19.4485 170.002 20.1758C171.161 20.903 172.073 21.9371 172.738 23.278C173.403 24.6189 173.735 26.2098 173.735 28.0508ZM171.69 28.0508C171.69 26.5394 171.437 25.2638 170.931 24.2241C170.431 23.1843 169.752 22.3973 168.894 21.8633C168.042 21.3292 167.087 21.0621 166.031 21.0621C164.974 21.0621 164.016 21.3292 163.158 21.8633C162.306 22.3973 161.627 23.1843 161.121 24.2241C160.621 25.2638 160.371 26.5394 160.371 28.0508C160.371 29.5621 160.621 30.8377 161.121 31.8775C161.627 32.9172 162.306 33.7042 163.158 34.2383C164.016 34.7723 164.974 35.0394 166.031 35.0394C167.087 35.0394 168.042 34.7723 168.894 34.2383C169.752 33.7042 170.431 32.9172 170.931 31.8775C171.437 30.8377 171.69 29.5621 171.69 28.0508ZM180.169 19.3235H182.692L188.624 33.8121H188.828L194.76 19.3235H197.283V36.778H195.305V23.5167H195.135L189.68 36.778H187.771L182.317 23.5167H182.146V36.778H180.169V19.3235ZM204.401 36.778V19.3235H214.935V21.1985H206.514V27.0962H214.389V28.9712H206.514V34.903H215.071V36.778H204.401Z" fill="#CE52A0"/>
</svg>
