<svg width="156" height="93" viewBox="0 0 156 93" fill="none" xmlns="http://www.w3.org/2000/svg">
<path d="M100.378 26.8011C98.1467 37.7079 88.4949 45.9114 76.9302 45.9114C65.3665 45.9114 55.7188 37.7079 53.4841 26.8011C53.1692 28.3601 53 29.9743 53 31.6248C53 44.8433 63.714 55.5561 76.9302 55.5561C90.1476 55.5561 100.861 44.8433 100.861 31.6248C100.861 29.9743 100.696 28.3601 100.378 26.8011Z" fill="#CE52A1" stroke="#3A162C" stroke-width="0.25"/>
<path d="M65.9331 7.26192C64.8551 7.97002 63.84 8.79939 62.8918 9.74561C55.3255 17.3137 55.3255 29.5839 62.8918 37.1511C66.6769 40.9351 71.6344 42.8267 76.5959 42.8267C81.5564 42.8267 86.516 40.9351 90.2992 37.1511C91.2455 36.2058 92.0716 35.1847 92.7799 34.1095C89.5575 36.2383 85.8373 37.3025 82.1171 37.3025C77.1586 37.3025 72.197 35.4119 68.414 31.6279C61.7941 25.007 60.9677 14.7849 65.9331 7.26192Z" fill="#CE52A1" stroke="#3A162C" stroke-width="0.25"/>
<path d="M82.0896 1C73.2966 1.00101 66.0923 8.04979 65.9429 16.877C65.7896 25.7997 72.8933 33.1555 81.818 33.3049C81.9143 33.307 82.0088 33.309 82.1053 33.309C83.1204 33.309 84.1158 33.2145 85.0759 33.0344C71.0835 16.3891 85.6229 1.38759 85.6229 1.38759C84.5761 1.15351 83.4883 1.02055 82.3728 1.00201C82.2784 1.00101 82.1839 1 82.0896 1Z" fill="#CE52A1" stroke="#3A162C" stroke-width="0.25"/>
<path d="M2.11364 86.5561V69.1015H12.5795V70.9765H4.22727V76.8742H11.7955V78.7492H4.22727V86.5561H2.11364ZM19.0796 86.5561V69.1015H21.1932V84.6811H29.3068V86.5561H19.0796ZM37.277 86.5561H35.0611L41.4702 69.1015H43.652L50.0611 86.5561H47.8452L42.6293 71.8629H42.493L37.277 86.5561ZM38.0952 79.7379H47.027V81.6129H38.0952V79.7379ZM57.471 86.5561L52.6982 69.1015H54.846L58.4937 83.3174H58.6641L62.3801 69.1015H64.7664L68.4823 83.3174H68.6528L72.3005 69.1015H74.4482L69.6755 86.5561H67.4937L63.6414 72.647H63.5051L59.6528 86.5561H57.471ZM89.5072 73.4652C89.4049 72.6015 88.9902 71.9311 88.2629 71.4538C87.5356 70.9765 86.6436 70.7379 85.5868 70.7379C84.814 70.7379 84.1379 70.8629 83.5584 71.1129C82.9845 71.3629 82.5356 71.7066 82.2118 72.1441C81.8936 72.5816 81.7345 73.0788 81.7345 73.6356C81.7345 74.1015 81.8453 74.5021 82.0669 74.8373C82.2942 75.1669 82.5839 75.4424 82.9362 75.664C83.2885 75.8799 83.6578 76.0589 84.0442 76.2009C84.4305 76.3373 84.7856 76.4481 85.1095 76.5333L86.8822 77.0106C87.3368 77.1299 87.8424 77.2947 88.3993 77.5049C88.9618 77.7152 89.4987 78.0021 90.0101 78.3657C90.5271 78.7237 90.9532 79.1839 91.2885 79.7464C91.6237 80.3089 91.7913 80.9992 91.7913 81.8174C91.7913 82.7606 91.5442 83.6129 91.0498 84.3742C90.5612 85.1356 89.8453 85.7407 88.9021 86.1896C87.9646 86.6384 86.8254 86.8629 85.4845 86.8629C84.2345 86.8629 83.1521 86.6612 82.2373 86.2578C81.3282 85.8544 80.6123 85.2919 80.0896 84.5703C79.5726 83.8487 79.2799 83.0106 79.2118 82.0561H81.3936C81.4504 82.7152 81.672 83.2606 82.0584 83.6924C82.4504 84.1186 82.9447 84.4367 83.5413 84.647C84.1436 84.8515 84.7913 84.9538 85.4845 84.9538C86.2913 84.9538 87.0157 84.8231 87.6578 84.5617C88.2998 84.2947 88.8084 83.9254 89.1834 83.4538C89.5584 82.9765 89.7459 82.4197 89.7459 81.7833C89.7459 81.2038 89.5839 80.7322 89.2601 80.3686C88.9362 80.0049 88.5101 79.7095 87.9817 79.4822C87.4532 79.2549 86.8822 79.0561 86.2686 78.8856L84.1209 78.272C82.7572 77.8799 81.6777 77.3203 80.8822 76.593C80.0868 75.8657 79.689 74.914 79.689 73.7379C79.689 72.7606 79.9532 71.9083 80.4817 71.1811C81.0157 70.4481 81.7317 69.8799 82.6294 69.4765C83.5328 69.0674 84.5413 68.8629 85.6549 68.8629C86.7799 68.8629 87.7799 69.0646 88.6549 69.468C89.5299 69.8657 90.2231 70.4112 90.7345 71.1044C91.2515 71.7975 91.5243 72.5845 91.5527 73.4652H89.5072ZM112.874 77.8288C112.874 79.6697 112.541 81.2606 111.877 82.6015C111.212 83.9424 110.3 84.9765 109.141 85.7038C107.982 86.4311 106.658 86.7947 105.169 86.7947C103.681 86.7947 102.357 86.4311 101.198 85.7038C100.038 84.9765 99.1266 83.9424 98.4618 82.6015C97.797 81.2606 97.4646 79.6697 97.4646 77.8288C97.4646 75.9879 97.797 74.397 98.4618 73.0561C99.1266 71.7152 100.038 70.6811 101.198 69.9538C102.357 69.2265 103.681 68.8629 105.169 68.8629C106.658 68.8629 107.982 69.2265 109.141 69.9538C110.3 70.6811 111.212 71.7152 111.877 73.0561C112.541 74.397 112.874 75.9879 112.874 77.8288ZM110.828 77.8288C110.828 76.3174 110.575 75.0419 110.07 74.0021C109.57 72.9623 108.891 72.1754 108.033 71.6413C107.181 71.1072 106.226 70.8402 105.169 70.8402C104.112 70.8402 103.155 71.1072 102.297 71.6413C101.445 72.1754 100.766 72.9623 100.26 74.0021C99.7601 75.0419 99.5101 76.3174 99.5101 77.8288C99.5101 79.3402 99.7601 80.6157 100.26 81.6555C100.766 82.6953 101.445 83.4822 102.297 84.0163C103.155 84.5504 104.112 84.8174 105.169 84.8174C106.226 84.8174 107.181 84.5504 108.033 84.0163C108.891 83.4822 109.57 82.6953 110.07 81.6555C110.575 80.6157 110.828 79.3402 110.828 77.8288ZM119.308 69.1015H121.83L127.762 83.5902H127.967L133.899 69.1015H136.421V86.5561H134.444V73.2947H134.274L128.819 86.5561H126.91L121.455 73.2947H121.285V86.5561H119.308V69.1015ZM143.539 86.5561V69.1015H154.073V70.9765H145.653V76.8742H153.528V78.7492H145.653V84.6811H154.21V86.5561H143.539Z" fill="#CE52A0"/>
</svg>
