<svg width="155" height="87" viewBox="0 0 155 87" fill="none" xmlns="http://www.w3.org/2000/svg">
<path d="M101.378 26.8011C99.1467 37.7079 89.4949 45.9114 77.9302 45.9114C66.3665 45.9114 56.7188 37.7079 54.4841 26.8011C54.1692 28.3601 54 29.9743 54 31.6248C54 44.8433 64.714 55.5561 77.9302 55.5561C91.1476 55.5561 101.861 44.8433 101.861 31.6248C101.861 29.9743 101.696 28.3601 101.378 26.8011Z" fill="#CE52A1" stroke="#3A162C"/>
<path d="M66.9331 7.26192C65.8551 7.97002 64.84 8.79939 63.8918 9.74561C56.3255 17.3137 56.3255 29.5839 63.8918 37.1511C67.6769 40.9351 72.6344 42.8267 77.5959 42.8267C82.5564 42.8267 87.516 40.9351 91.2992 37.1511C92.2455 36.2058 93.0716 35.1847 93.7799 34.1095C90.5575 36.2383 86.8373 37.3025 83.1171 37.3025C78.1586 37.3025 73.197 35.4119 69.414 31.6279C62.7941 25.007 61.9677 14.7849 66.9331 7.26192Z" fill="#CE52A1" stroke="#3A162C"/>
<path d="M83.0896 1C74.2966 1.00101 67.0923 8.04979 66.9429 16.877C66.7896 25.7997 73.8933 33.1555 82.818 33.3049C82.9143 33.307 83.0088 33.309 83.1053 33.309C84.1204 33.309 85.1158 33.2145 86.0759 33.0344C72.0835 16.3891 86.6229 1.38759 86.6229 1.38759C85.5761 1.15351 84.4883 1.02055 83.3728 1.00201C83.2784 1.00101 83.1839 1 83.0896 1Z" fill="#CE52A1" stroke="#3A162C"/>
<path d="M7.40671 84.5235H2.87366V72.0425H1V68.1743H2.87366C2.95425 66.0186 3.56873 64.3766 4.7171 63.2484C5.86547 62.1202 7.45707 61.5561 9.49191 61.5561C10.0963 61.5561 10.7612 61.6467 11.4864 61.828L11.2447 65.4847C10.8619 65.3638 10.4489 65.3034 10.0057 65.3034C8.91772 65.3034 8.21258 65.5754 7.89023 66.1193C7.56788 66.6633 7.40671 67.3483 7.40671 68.1743H10.3985V72.0425H7.40671V84.5235ZM13.9343 61.6769H18.4673V84.5235H13.9343V61.6769ZM35.3907 82.8614C35.0079 83.3852 34.3481 83.8536 33.4113 84.2666C32.4745 84.6796 31.452 84.8861 30.3439 84.8861C28.6314 84.8861 27.1456 84.5034 25.8864 83.7378C24.6272 82.9722 23.6652 81.9296 23.0004 80.61C22.3355 79.2903 22.0031 77.8247 22.0031 76.2129C22.0031 74.6012 22.3355 73.1355 23.0004 71.8159C23.6652 70.4962 24.6272 69.4536 25.8864 68.6881C27.1456 67.9225 28.6314 67.5397 30.3439 67.5397C31.4923 67.5397 32.5047 67.7361 33.3811 68.129C34.2575 68.5218 34.9273 69.0205 35.3907 69.6249V67.9023H39.8633V84.5235H35.3907V82.8614ZM34.333 72.8131C33.507 71.9367 32.3989 71.4985 31.0088 71.4985C29.5985 71.4985 28.4854 71.9367 27.6694 72.8131C26.8535 73.6895 26.4455 74.8228 26.4455 76.2129C26.4455 77.5628 26.8635 78.6809 27.6996 79.5674C28.5357 80.4538 29.6388 80.8971 31.0088 80.8971C32.4191 80.8971 33.5322 80.479 34.3481 79.6429C35.1641 78.8068 35.572 77.6635 35.572 76.2129C35.572 74.8228 35.159 73.6895 34.333 72.8131ZM42.4018 67.9628H47.2069L49.9871 75.3365L54.0064 67.0562L58.0862 75.3667L60.9571 67.9628H65.7319L58.5999 85.2186L54.0064 76.3942L49.4734 85.2186L42.4018 67.9628ZM66.8501 82.3174L69.2072 79.1745C69.9325 79.6782 70.7787 80.1013 71.7457 80.4438C72.7128 80.7863 73.6597 80.9575 74.5865 80.9575C75.2715 80.9575 75.8406 80.8165 76.2939 80.5344C76.7472 80.2524 76.9739 79.8998 76.9739 79.4767C76.9739 79.0536 76.717 78.7565 76.2032 78.5852C75.6895 78.414 75.1909 78.2931 74.7073 78.2226C74.2238 78.152 73.9115 78.1067 73.7705 78.0866C72.5617 77.8851 71.5191 77.6433 70.6427 77.3613C69.7663 77.0792 68.9705 76.5756 68.2553 75.8503C67.5401 75.125 67.1825 74.1277 67.1825 72.8585C67.1825 70.7632 67.943 69.363 69.4641 68.6578C70.9852 67.9527 72.5113 67.6001 74.0425 67.6001C75.352 67.6001 76.5609 67.7915 77.6689 68.1743C78.777 68.5571 79.875 69.1615 80.9629 69.9875L78.6058 73.07C77.82 72.6066 77.0444 72.2339 76.2788 71.9518C75.5132 71.6698 74.7174 71.5288 73.8914 71.5288C73.3877 71.5288 72.8992 71.6396 72.4257 71.8612C71.9523 72.0828 71.7155 72.385 71.7155 72.7678C71.7155 73.2513 72.0429 73.5938 72.6977 73.7953C73.3525 73.9968 74.0727 74.1479 74.8584 74.2486C76.2687 74.4904 77.3969 74.7422 78.2431 75.0041C79.0893 75.266 79.8398 75.7546 80.4945 76.4698C81.1493 77.185 81.4767 78.1974 81.4767 79.5069C81.4767 81.2396 80.8824 82.5743 79.6937 83.5111C78.505 84.4479 76.8228 84.9164 74.6469 84.9164C71.6249 84.9164 69.0259 84.05 66.8501 82.3174ZM88.7749 83.7529C87.3948 82.9772 86.3019 81.9246 85.496 80.5949C84.6901 79.2652 84.2872 77.8146 84.2872 76.2431C84.2872 74.6918 84.6901 73.2513 85.496 71.9216C86.3019 70.5919 87.3948 69.5393 88.7749 68.7636C90.155 67.988 91.6609 67.6001 93.2928 67.6001C94.9247 67.6001 96.4357 67.988 97.8259 68.7636C99.216 69.5393 100.319 70.5919 101.135 71.9216C101.951 73.2513 102.359 74.6918 102.359 76.2431C102.359 77.8146 101.951 79.2652 101.135 80.5949C100.319 81.9246 99.216 82.9772 97.8259 83.7529C96.4357 84.5285 94.9247 84.9164 93.2928 84.9164C91.6609 84.9164 90.155 84.5285 88.7749 83.7529ZM90.9961 72.1785C90.2909 72.5915 89.7369 73.1556 89.334 73.8708C88.931 74.5861 88.7296 75.3768 88.7296 76.2431C88.7296 77.1497 88.926 77.9607 89.3189 78.6759C89.7117 79.3911 90.2557 79.9552 90.9508 80.3682C91.6458 80.7812 92.4265 80.9877 93.2928 80.9877C94.139 80.9877 94.9096 80.7812 95.6047 80.3682C96.2998 79.9552 96.8487 79.386 97.2517 78.6608C97.6546 77.9355 97.8561 77.1296 97.8561 76.2431C97.8561 75.3768 97.6546 74.5861 97.2517 73.8708C96.8487 73.1556 96.2998 72.5915 95.6047 72.1785C94.9096 71.7655 94.139 71.559 93.2928 71.559C92.4668 71.559 91.7012 71.7655 90.9961 72.1785ZM130.842 69.4738C131.98 70.7229 132.549 72.4656 132.549 74.7019V84.5235H127.986V74.7019C127.986 73.5132 127.689 72.657 127.094 72.1332C126.5 71.6094 125.719 71.3474 124.752 71.3474C123.946 71.3474 123.221 71.6496 122.576 72.2541C121.932 72.8585 121.599 73.8658 121.579 75.2761V84.5235H117.016V74.7019C117.016 73.5132 116.719 72.657 116.124 72.1332C115.53 71.6094 114.759 71.3474 113.812 71.3474C112.946 71.3474 112.196 71.6698 111.561 72.3145C110.926 72.9592 110.609 74.0975 110.609 75.7294L110.579 84.5235H106.076V67.9023H110.579V69.4133C111.163 68.8895 111.868 68.4564 112.694 68.1139C113.52 67.7714 114.276 67.6001 114.961 67.6001C117.298 67.6001 119.081 68.3556 120.31 69.8666C120.934 69.1615 121.71 68.6075 122.637 68.2045C123.564 67.8016 124.571 67.6001 125.659 67.6001C127.976 67.6001 129.703 68.2247 130.842 69.4738ZM141.479 84.1306C140.099 83.5867 138.915 82.6649 137.928 81.3655C136.941 80.066 136.447 78.3686 136.447 76.2734C136.447 74.1781 136.946 72.4857 137.943 71.1963C138.941 69.9069 140.134 68.9903 141.524 68.4463C142.915 67.9023 144.234 67.6303 145.483 67.6303C146.934 67.6303 148.314 67.9527 149.623 68.5974C150.933 69.2421 152.006 70.189 152.842 71.4381C153.678 72.6872 154.116 74.168 154.157 75.8805C154.157 76.4043 154.146 76.8576 154.126 77.2404C154.106 77.6232 154.086 77.865 154.066 77.9657H140.95C141.192 79.1342 141.796 79.93 142.763 80.3531C143.731 80.7762 144.637 80.9877 145.483 80.9877C146.571 80.9877 147.438 80.7913 148.082 80.3984C148.727 80.0056 149.281 79.5573 149.744 79.0536L153.25 81.0784C151.356 83.6572 148.767 84.9466 145.483 84.9466C144.194 84.9466 142.859 84.6746 141.479 84.1306ZM142.401 72.5109C141.615 73.1254 141.172 73.8759 141.071 74.7623H149.382C149.321 74.2385 149.12 73.7348 148.777 73.2513C148.435 72.7678 147.976 72.3699 147.402 72.0576C146.828 71.7453 146.178 71.5892 145.453 71.5892C144.204 71.5892 143.187 71.8964 142.401 72.5109Z" fill="#CE52A0" stroke="#3A162C"/>
</svg>
