<svg width="215" height="57" viewBox="0 0 215 57" fill="none" xmlns="http://www.w3.org/2000/svg">
<path d="M48.3775 26.8011C46.1467 37.7079 36.4949 45.9114 24.9302 45.9114C13.3665 45.9114 3.71879 37.7079 1.48409 26.8011C1.16922 28.3601 1 29.9743 1 31.6248C1 44.8433 11.714 55.5561 24.9302 55.5561C38.1476 55.5561 48.8614 44.8433 48.8614 31.6248C48.8614 29.9743 48.6962 28.3601 48.3775 26.8011Z" fill="#CE52A1" stroke="#3A162C"/>
<path d="M13.9331 7.26192C12.8551 7.97002 11.84 8.79939 10.8918 9.74561C3.32546 17.3137 3.32546 29.5839 10.8918 37.1511C14.6769 40.9351 19.6344 42.8267 24.5959 42.8267C29.5564 42.8267 34.516 40.9351 38.2992 37.1511C39.2455 36.2058 40.0716 35.1847 40.7799 34.1095C37.5575 36.2383 33.8373 37.3025 30.1171 37.3025C25.1586 37.3025 20.197 35.4119 16.414 31.6279C9.79407 25.007 8.96772 14.7849 13.9331 7.26192Z" fill="#CE52A1" stroke="#3A162C"/>
<path d="M30.0896 1C21.2966 1.00101 14.0923 8.04979 13.9429 16.877C13.7896 25.7997 20.8933 33.1555 29.818 33.3049C29.9143 33.307 30.0088 33.309 30.1053 33.309C31.1204 33.309 32.1158 33.2145 33.0759 33.0344C19.0835 16.3891 33.6229 1.38759 33.6229 1.38759C32.5761 1.15351 31.4883 1.02055 30.3728 1.00201C30.2784 1.00101 30.1839 1 30.0896 1Z" fill="#CE52A1" stroke="#3A162C"/>
<path d="M67.268 41.9674H62.735V29.4864H60.8613V25.6182H62.735C62.8156 23.4625 63.4301 21.8206 64.5784 20.6923C65.7268 19.5641 67.3184 19 69.3532 19C69.9576 19 70.6225 19.0907 71.3478 19.272L71.106 22.9286C70.7232 22.8078 70.3102 22.7473 69.867 22.7473C68.779 22.7473 68.0739 23.0193 67.7516 23.5633C67.4292 24.1072 67.268 24.7922 67.268 25.6182H70.2598V29.4864H67.268V41.9674ZM73.7956 19.1209H78.3287V41.9674H73.7956V19.1209ZM95.252 40.3053C94.8693 40.8291 94.2094 41.2976 93.2726 41.7106C92.3358 42.1236 91.3133 42.3301 90.2052 42.3301C88.4928 42.3301 87.0069 41.9473 85.7478 41.1817C84.4886 40.4161 83.5266 39.3735 82.8617 38.0539C82.1969 36.7343 81.8644 35.2686 81.8644 33.6569C81.8644 32.0451 82.1969 30.5794 82.8617 29.2598C83.5266 27.9402 84.4886 26.8976 85.7478 26.132C87.0069 25.3664 88.4928 24.9836 90.2052 24.9836C91.3536 24.9836 92.366 25.1801 93.2424 25.5729C94.1188 25.9658 94.7887 26.4644 95.252 27.0688V25.3463H99.7246V41.9674H95.252V40.3053ZM94.1943 30.2571C93.3683 29.3807 92.2602 28.9425 90.8701 28.9425C89.4598 28.9425 88.3467 29.3807 87.5308 30.2571C86.7148 31.1335 86.3068 32.2667 86.3068 33.6569C86.3068 35.0067 86.7249 36.1248 87.561 37.0113C88.3971 37.8978 89.5001 38.341 90.8701 38.341C92.2804 38.341 93.3935 37.923 94.2094 37.0869C95.0254 36.2508 95.4334 35.1074 95.4334 33.6569C95.4334 32.2667 95.0204 31.1335 94.1943 30.2571ZM102.263 25.4067H107.068L109.848 32.7805L113.868 24.5001L117.947 32.8107L120.818 25.4067H125.593L118.461 42.6625L113.868 33.8382L109.335 42.6625L102.263 25.4067ZM126.711 39.7614L129.069 36.6184C129.794 37.1221 130.64 37.5452 131.607 37.8877C132.574 38.2302 133.521 38.4014 134.448 38.4014C135.133 38.4014 135.702 38.2604 136.155 37.9784C136.609 37.6963 136.835 37.3437 136.835 36.9206C136.835 36.4976 136.578 36.2004 136.065 36.0291C135.551 35.8579 135.052 35.737 134.569 35.6665C134.085 35.596 133.773 35.5507 133.632 35.5305C132.423 35.329 131.38 35.0873 130.504 34.8052C129.628 34.5232 128.832 34.0195 128.117 33.2942C127.401 32.5689 127.044 31.5716 127.044 30.3024C127.044 28.2071 127.804 26.8069 129.325 26.1018C130.847 25.3966 132.373 25.0441 133.904 25.0441C135.213 25.0441 136.422 25.2355 137.53 25.6182C138.638 26.001 139.736 26.6054 140.824 27.4315L138.467 30.5139C137.681 30.0506 136.906 29.6778 136.14 29.3958C135.375 29.1137 134.579 28.9727 133.753 28.9727C133.249 28.9727 132.76 29.0835 132.287 29.3051C131.814 29.5267 131.577 29.8289 131.577 30.2117C131.577 30.6953 131.904 31.0378 132.559 31.2392C133.214 31.4407 133.934 31.5918 134.72 31.6925C136.13 31.9343 137.258 32.1861 138.104 32.448C138.951 32.7099 139.701 33.1985 140.356 33.9137C141.011 34.6289 141.338 35.6413 141.338 36.9509C141.338 38.6835 140.744 40.0182 139.555 40.9551C138.366 41.8919 136.684 42.3603 134.508 42.3603C131.486 42.3603 128.887 41.494 126.711 39.7614ZM148.636 41.1968C147.256 40.4212 146.163 39.3685 145.357 38.0388C144.551 36.7091 144.149 35.2585 144.149 33.6871C144.149 32.1358 144.551 30.6953 145.357 29.3656C146.163 28.0359 147.256 26.9832 148.636 26.2075C150.016 25.4319 151.522 25.0441 153.154 25.0441C154.786 25.0441 156.297 25.4319 157.687 26.2075C159.077 26.9832 160.18 28.0359 160.996 29.3656C161.812 30.6953 162.22 32.1358 162.22 33.6871C162.22 35.2585 161.812 36.7091 160.996 38.0388C160.18 39.3685 159.077 40.4212 157.687 41.1968C156.297 41.9725 154.786 42.3603 153.154 42.3603C151.522 42.3603 150.016 41.9725 148.636 41.1968ZM150.857 29.6224C150.152 30.0355 149.598 30.5996 149.195 31.3148C148.792 32.03 148.591 32.8208 148.591 33.6871C148.591 34.5937 148.787 35.4046 149.18 36.1198C149.573 36.835 150.117 37.3991 150.812 37.8121C151.507 38.2252 152.288 38.4317 153.154 38.4317C154 38.4317 154.771 38.2252 155.466 37.8121C156.161 37.3991 156.71 36.83 157.113 36.1047C157.516 35.3794 157.717 34.5735 157.717 33.6871C157.717 32.8208 157.516 32.03 157.113 31.3148C156.71 30.5996 156.161 30.0355 155.466 29.6224C154.771 29.2094 154 29.0029 153.154 29.0029C152.328 29.0029 151.563 29.2094 150.857 29.6224ZM190.703 26.9177C191.841 28.1668 192.41 29.9095 192.41 32.1458V41.9674H187.847V32.1458C187.847 30.9572 187.55 30.1009 186.956 29.5771C186.361 29.0533 185.581 28.7914 184.614 28.7914C183.808 28.7914 183.082 29.0936 182.438 29.698C181.793 30.3024 181.461 31.3097 181.44 32.72V41.9674H176.877V32.1458C176.877 30.9572 176.58 30.1009 175.986 29.5771C175.391 29.0533 174.621 28.7914 173.674 28.7914C172.807 28.7914 172.057 29.1137 171.422 29.7584C170.788 30.4031 170.47 31.5414 170.47 33.1733L170.44 41.9674H165.937V25.3463H170.44V26.8573C171.024 26.3335 171.73 25.9003 172.556 25.5578C173.382 25.2153 174.137 25.0441 174.822 25.0441C177.159 25.0441 178.942 25.7996 180.171 27.3106C180.796 26.6054 181.571 26.0514 182.498 25.6485C183.425 25.2455 184.432 25.0441 185.52 25.0441C187.837 25.0441 189.565 25.6686 190.703 26.9177ZM201.34 41.5746C199.96 41.0306 198.777 40.1089 197.79 38.8094C196.802 37.5099 196.309 35.8126 196.309 33.7173C196.309 31.622 196.807 29.9297 197.805 28.6403C198.802 27.3509 199.996 26.4342 201.386 25.8902C202.776 25.3463 204.096 25.0743 205.345 25.0743C206.795 25.0743 208.175 25.3966 209.485 26.0413C210.794 26.686 211.867 27.6329 212.703 28.882C213.539 30.1311 213.978 31.6119 214.018 33.3244C214.018 33.8482 214.008 34.3016 213.988 34.6843C213.968 35.0671 213.947 35.3089 213.927 35.4096H200.812C201.053 36.5781 201.658 37.3739 202.625 37.797C203.592 38.2201 204.498 38.4317 205.345 38.4317C206.433 38.4317 207.299 38.2352 207.944 37.8424C208.588 37.4495 209.142 37.0012 209.606 36.4976L213.111 38.5223C211.217 41.1011 208.629 42.3905 205.345 42.3905C204.055 42.3905 202.721 42.1185 201.34 41.5746ZM202.262 29.9549C201.476 30.5693 201.033 31.3198 200.932 32.2063H209.243C209.183 31.6825 208.981 31.1788 208.639 30.6953C208.296 30.2117 207.838 29.8138 207.264 29.5016C206.689 29.1893 206.04 29.0331 205.314 29.0331C204.065 29.0331 203.048 29.3404 202.262 29.9549Z" fill="#CE52A0" stroke="#3A162C"/>
</svg>
